/* XPM */
static char * bottom_right_inactive_xpm[] = {
"4 4 3 1",
" 	c None",
".	c #4E5051",
"+	c #4F5253",
".++.",
"+++.",
"+++.",
"...."};
