/* XPM */
static char * bottom_active_xpm[] = {
"8 4 3 1",
" 	c None",
".	c #4E5051",
"+	c #4F5253",
"........",
"++++++++",
"++++++++",
"........"};
