/* XPM */
static char * close_pressed_xpm[] = {
"23 30 129 2",
"  	c None",
". 	c #4E5051",
"+ 	c #606266",
"@ 	c #616366",
"# 	c #606366",
"$ 	c #606265",
"% 	c #616265",
"& 	c #616365",
"* 	c #5F6264",
"= 	c #5F6265",
"- 	c #5F6164",
"; 	c #606164",
"> 	c #606165",
", 	c #5E6164",
"' 	c #5F6163",
") 	c #5E6063",
"! 	c #5F6063",
"~ 	c #5E6163",
"{ 	c #5F6064",
"] 	c #5E6064",
"^ 	c #5E6062",
"/ 	c #5D6062",
"( 	c #5E5F62",
"_ 	c #5D5F63",
": 	c #5D5F62",
"< 	c #5D6063",
"[ 	c #5D5F61",
"} 	c #5D5E61",
"| 	c #5C5E60",
"1 	c #5C5F61",
"2 	c #5C5E61",
"3 	c #5D5E60",
"4 	c #5B5D60",
"5 	c #5C5D60",
"6 	c #404244",
"7 	c #1D1E1F",
"8 	c #080809",
"9 	c #010101",
"0 	c #1E1E1F",
"a 	c #414344",
"b 	c #5B5E60",
"c 	c #5B5D5F",
"d 	c #5A5D5F",
"e 	c #242526",
"f 	c #000000",
"g 	c #5A5D5E",
"h 	c #5A5C5F",
"i 	c #191919",
"j 	c #5A5C5E",
"k 	c #5B5D5E",
"l 	c #5B5C5E",
"m 	c #5A5B5E",
"n 	c #595B5E",
"o 	c #3F4043",
"p 	c #595C5E",
"q 	c #404143",
"r 	c #595A5D",
"s 	c #585B5D",
"t 	c #595B5D",
"u 	c #1D1D1E",
"v 	c #585B5E",
"w 	c #585B5C",
"x 	c #585A5C",
"y 	c #080808",
"z 	c #595A5C",
"A 	c #585A5D",
"B 	c #585A5B",
"C 	c #57595B",
"D 	c #575A5C",
"E 	c #57585B",
"F 	c #57585A",
"G 	c #56585A",
"H 	c #56585B",
"I 	c #1C1C1D",
"J 	c #56595A",
"K 	c #57595A",
"L 	c #565859",
"M 	c #555859",
"N 	c #565759",
"O 	c #3C3E40",
"P 	c #55585A",
"Q 	c #55575A",
"R 	c #555758",
"S 	c #555659",
"T 	c #555759",
"U 	c #222323",
"V 	c #545758",
"W 	c #545658",
"X 	c #555658",
"Y 	c #212323",
"Z 	c #545558",
"` 	c #545657",
" .	c #545557",
"..	c #535557",
"+.	c #535657",
"@.	c #3B3C3E",
"#.	c #1B1C1C",
"$.	c #070808",
"%.	c #000101",
"&.	c #535556",
"*.	c #525556",
"=.	c #535456",
"-.	c #535457",
";.	c #525456",
">.	c #535455",
",.	c #515455",
"'.	c #525455",
").	c #525355",
"!.	c #515456",
"~.	c #515354",
"{.	c #515355",
"].	c #515254",
"^.	c #505254",
"/.	c #505253",
"(.	c #505353",
"_.	c #505354",
":.	c #515253",
"<.	c #4F5253",
"[.	c #505252",
"}.	c #4F5152",
"|.	c #505153",
"1.	c #4F5252",
"2.	c #4E5152",
"3.	c #4F5153",
"4.	c #4F5052",
"5.	c #4F5151",
"6.	c #4E5052",
"7.	c #4E5151",
"8.	c #4F5051",
". . . . . . . . . . . . . . . . . . . . . . . ",
"+ @ @ # @ @ @ + @ @ + @ @ # @ @ @ @ @ @ @ @ # ",
"$ $ + % + + + + $ + $ $ + % + + + $ $ + + & $ ",
"* = - - ; * * - $ - * = - - ; * * > - = ; $ = ",
"- , - - - - - , ' , - , - - - - - - - - , - , ",
") ! ) ~ ) { ) ) ~ ) ) ! ) ~ ) { ) ) ] ) ) ) ) ",
"^ ) ^ / ( ^ / / ( _ ^ ) ^ / ( ^ / / : < ) ( ) ",
"[ [ : [ : [ : : : : [ [ : [ : [ : [ : : : } : ",
"| } 1 1 2 2 1 2 2 | | } 1 1 2 2 1 2 3 2 2 } 2 ",
"| | 4 5 | 4 5 | 6 7 8 9 8 0 a 4 5 5 5 b b | 4 ",
"c 4 d 4 c d c e f f f f f f f e c 4 c c 4 d 4 ",
"g g d d h g e i i f f f f f i i e h j k l h h ",
"j j m n j o f i n p f f f n j i f q j j n j p ",
"r s n t t u f f t t r f n t t f f u r n t v t ",
"w w s w x y f f f t w w s w f f f y z x A A A ",
"B C C x D 9 f f f f B C C f f f f 9 x D B B B ",
"E C C C C y f f f C E C C C f f f y C C C C C ",
"F G F H H I f f J K F f F H H f f I G G G G G ",
"L M L L N O f i P G f f f L N i f O G M M Q M ",
"R S R T T R U i i f f f f f i i U T T T T T T ",
"V W W W X R X Y f f f f f f f U X R W W V V W ",
"Z `  ... . .+...@.#.$.%.$.#.@. .+...` W ` `  .",
"..&.*.&.&.&.&...&.....&.*.&.&.&.&.=...&.-.&...",
"=.;.;.;.;.&.;.;.*.=.=.;.;.;.;.&.;.>.*.*.;.;.=.",
",.'.).,.,.,.,.).'.!.,.'.).,.,.,.,.'.'.,.'.'.!.",
"~.~.{.{.~.{.].~.~.{.~.~.{.{.~.{.].~.~.~.~.~.{.",
"^.].]./.(./.]._./.(.^.].]./.(./.].^.].~.:.].^.",
"<.[.}.|./.<.<./.|.1.<.[.}.|./.<.<.|.|./.[./.|.",
"2.}.3.}.}.}.}.}.}.4.2.}.3.}.}.}.}.}.}.}.}.}.2.",
"5.4.5.. 2.6.2.7.2.6.5.4.5.. 2.6.2.4.8.2.6.2.6."};
