/* XPM */
static char * close_prelight_xpm[] = {
"23 30 132 2",
"  	c None",
". 	c #4E5051",
"+ 	c #606266",
"@ 	c #616366",
"# 	c #606366",
"$ 	c #606265",
"% 	c #616265",
"& 	c #616365",
"* 	c #5F6264",
"= 	c #5F6265",
"- 	c #5F6164",
"; 	c #606164",
"> 	c #606165",
", 	c #5E6164",
"' 	c #5F6163",
") 	c #5E6063",
"! 	c #5F6063",
"~ 	c #5E6163",
"{ 	c #5F6064",
"] 	c #5E6064",
"^ 	c #5E6062",
"/ 	c #5D6062",
"( 	c #5E5F62",
"_ 	c #5D5F63",
": 	c #5D5F62",
"< 	c #5D6063",
"[ 	c #5D5F61",
"} 	c #5D5E61",
"| 	c #5C5E60",
"1 	c #5C5F61",
"2 	c #5C5E61",
"3 	c #5D5E60",
"4 	c #5B5D60",
"5 	c #5C5D60",
"6 	c #7C7D7F",
"7 	c #A8A9AA",
"8 	c #C4C4C4",
"9 	c #CDCDCD",
"0 	c #A9A9AA",
"a 	c #7C7E7F",
"b 	c #5B5E60",
"c 	c #5B5D5F",
"d 	c #5A5D5F",
"e 	c #A0A0A1",
"f 	c #CFCFCF",
"g 	c #9FA0A1",
"h 	c #5A5D5E",
"i 	c #5A5C5F",
"j 	c #BBBBBB",
"k 	c #5A5C5E",
"l 	c #5B5D5E",
"m 	c #5B5C5E",
"n 	c #5A5B5E",
"o 	c #595B5E",
"p 	c #7A7C7E",
"q 	c #595C5E",
"r 	c #7B7C7E",
"s 	c #595A5D",
"t 	c #585B5D",
"u 	c #595B5D",
"v 	c #A8A8A9",
"w 	c #585B5E",
"x 	c #585B5C",
"y 	c #585A5C",
"z 	c #C3C4C4",
"A 	c #595A5C",
"B 	c #585A5D",
"C 	c #585A5B",
"D 	c #57595B",
"E 	c #575A5C",
"F 	c #57585B",
"G 	c #C3C3C4",
"H 	c #57585A",
"I 	c #56585A",
"J 	c #56585B",
"K 	c #A7A7A8",
"L 	c #56595A",
"M 	c #57595A",
"N 	c #565859",
"O 	c #555859",
"P 	c #565759",
"Q 	c #77797B",
"R 	c #55585A",
"S 	c #777A7B",
"T 	c #55575A",
"U 	c #555758",
"V 	c #555659",
"W 	c #555759",
"X 	c #9D9E9F",
"Y 	c #545758",
"Z 	c #545658",
"` 	c #555658",
" .	c #9D9E9E",
"..	c #545558",
"+.	c #545657",
"@.	c #545557",
"#.	c #535557",
"$.	c #535657",
"%.	c #777779",
"&.	c #A6A7A7",
"*.	c #C3C3C3",
"=.	c #A6A6A7",
"-.	c #535556",
";.	c #525556",
">.	c #535456",
",.	c #535457",
"'.	c #525456",
").	c #535455",
"!.	c #515455",
"~.	c #525455",
"{.	c #525355",
"].	c #515456",
"^.	c #515354",
"/.	c #515355",
"(.	c #515254",
"_.	c #505254",
":.	c #505253",
"<.	c #505353",
"[.	c #505354",
"}.	c #515253",
"|.	c #4F5253",
"1.	c #505252",
"2.	c #4F5152",
"3.	c #505153",
"4.	c #4F5252",
"5.	c #4E5152",
"6.	c #4F5153",
"7.	c #4F5052",
"8.	c #4F5151",
"9.	c #4E5052",
"0.	c #4E5151",
"a.	c #4F5051",
". . . . . . . . . . . . . . . . . . . . . . . ",
"+ @ @ # @ @ @ + @ @ + @ @ # @ @ @ @ @ @ @ @ # ",
"$ $ + % + + + + $ + $ $ + % + + + $ $ + + & $ ",
"* = - - ; * * - $ - * = - - ; * * > - = ; $ = ",
"- , - - - - - , ' , - , - - - - - - - - , - , ",
") ! ) ~ ) { ) ) ~ ) ) ! ) ~ ) { ) ) ] ) ) ) ) ",
"^ ) ^ / ( ^ / / ( _ ^ ) ^ / ( ^ / / : < ) ( ) ",
"[ [ : [ : [ : : : : [ [ : [ : [ : [ : : : } : ",
"| } 1 1 2 2 1 2 2 | | } 1 1 2 2 1 2 3 2 2 } 2 ",
"| | 4 5 | 4 5 | 6 7 8 9 8 0 a 4 5 5 5 b b | 4 ",
"c 4 d 4 c d c e f f f f f f f g c 4 c c 4 d 4 ",
"h h d d i h e j j f f f f f j j e i k l m i i ",
"k k n o k p f j o q f f f o k j f r k k o k q ",
"s t o u u v f f u u s f o u u f f v s o u w u ",
"x x t x y z f f f u x x t x f f f z A y B B B ",
"C D D y E 9 f f f f C D D f f f f 9 y E C C C ",
"F D D D D G f f f D F D D D f f f G D D D D D ",
"H I H J J K f f L M H f H J J f f K I I I I I ",
"N O N N P Q f j R I f f f N P j f S I O O T O ",
"U V U W W U X j j f f f f f j j X W W W W W W ",
"Y Z Z Z ` U `  .f f f f f f f  .` U Z Z Y Y Z ",
"..+.@.#.@.@.$.#.%.&.*.9 *.=.%.@.$.#.+.Z +.+.@.",
"#.-.;.-.-.-.-.#.-.#.#.-.;.-.-.-.-.>.#.-.,.-.#.",
">.'.'.'.'.-.'.'.;.>.>.'.'.'.'.-.'.).;.;.'.'.>.",
"!.~.{.!.!.!.!.{.~.].!.~.{.!.!.!.!.~.~.!.~.~.].",
"^.^././.^./.(.^.^./.^.^././.^./.(.^.^.^.^.^./.",
"_.(.(.:.<.:.(.[.:.<._.(.(.:.<.:.(._.(.^.}.(._.",
"|.1.2.3.:.|.|.:.3.4.|.1.2.3.:.|.|.3.3.:.1.:.3.",
"5.2.6.2.2.2.2.2.2.7.5.2.6.2.2.2.2.2.2.2.2.2.5.",
"8.7.8.. 5.9.5.0.5.9.8.7.8.. 5.9.5.7.a.5.9.5.9."};
