/* XPM */
static char * close_inactive_xpm[] = {
"23 30 130 2",
"  	c None",
". 	c #4E5051",
"+ 	c #606266",
"@ 	c #616366",
"# 	c #606366",
"$ 	c #606265",
"% 	c #616265",
"& 	c #616365",
"* 	c #5F6264",
"= 	c #5F6265",
"- 	c #5F6164",
"; 	c #606164",
"> 	c #606165",
", 	c #5E6164",
"' 	c #5F6163",
") 	c #5E6063",
"! 	c #5F6063",
"~ 	c #5E6163",
"{ 	c #5F6064",
"] 	c #5E6064",
"^ 	c #5E6062",
"/ 	c #5D6062",
"( 	c #5E5F62",
"_ 	c #5D5F63",
": 	c #5D5F62",
"< 	c #5D6063",
"[ 	c #5D5F61",
"} 	c #5D5E61",
"| 	c #5C5E60",
"1 	c #5C5F61",
"2 	c #5C5E61",
"3 	c #5D5E60",
"4 	c #5B5D60",
"5 	c #5C5D60",
"6 	c #6C6E70",
"7 	c #848586",
"8 	c #939393",
"9 	c #989898",
"0 	c #6D6E70",
"a 	c #5B5E60",
"b 	c #5B5D5F",
"c 	c #5A5D5F",
"d 	c #7F8081",
"e 	c #999999",
"f 	c #5A5D5E",
"g 	c #5A5C5F",
"h 	c #929292",
"i 	c #5A5C5E",
"j 	c #5B5D5E",
"k 	c #5B5C5E",
"l 	c #5A5B5E",
"m 	c #595B5E",
"n 	c #6B6C6E",
"o 	c #595C5E",
"p 	c #6C6D6E",
"q 	c #595A5D",
"r 	c #585B5D",
"s 	c #595B5D",
"t 	c #838485",
"u 	c #585B5E",
"v 	c #585B5C",
"w 	c #585A5C",
"x 	c #929393",
"y 	c #595A5C",
"z 	c #585A5D",
"A 	c #585A5B",
"B 	c #57595B",
"C 	c #575A5C",
"D 	c #57585B",
"E 	c #929293",
"F 	c #57585A",
"G 	c #56585A",
"H 	c #56585B",
"I 	c #828384",
"J 	c #56595A",
"K 	c #57595A",
"L 	c #838384",
"M 	c #565859",
"N 	c #555859",
"O 	c #565759",
"P 	c #68696C",
"Q 	c #55585A",
"R 	c #686A6C",
"S 	c #55575A",
"T 	c #555758",
"U 	c #555659",
"V 	c #555759",
"W 	c #7D7E7F",
"X 	c #545758",
"Y 	c #545658",
"Z 	c #555658",
"` 	c #7D7E7E",
" .	c #545558",
"..	c #545657",
"+.	c #545557",
"@.	c #535557",
"#.	c #535657",
"$.	c #676869",
"%.	c #828283",
"&.	c #818283",
"*.	c #535556",
"=.	c #525556",
"-.	c #535456",
";.	c #535457",
">.	c #525456",
",.	c #535455",
"'.	c #515455",
").	c #525455",
"!.	c #525355",
"~.	c #515456",
"{.	c #515354",
"].	c #515355",
"^.	c #515254",
"/.	c #505254",
"(.	c #505253",
"_.	c #505353",
":.	c #505354",
"<.	c #515253",
"[.	c #4F5253",
"}.	c #505252",
"|.	c #4F5152",
"1.	c #505153",
"2.	c #4F5252",
"3.	c #4E5152",
"4.	c #4F5153",
"5.	c #4F5052",
"6.	c #4F5151",
"7.	c #4E5052",
"8.	c #4E5151",
"9.	c #4F5051",
". . . . . . . . . . . . . . . . . . . . . . . ",
"+ @ @ # @ @ @ + @ @ + @ @ # @ @ @ @ @ @ @ @ # ",
"$ $ + % + + + + $ + $ $ + % + + + $ $ + + & $ ",
"* = - - ; * * - $ - * = - - ; * * > - = ; $ = ",
"- , - - - - - , ' , - , - - - - - - - - , - , ",
") ! ) ~ ) { ) ) ~ ) ) ! ) ~ ) { ) ) ] ) ) ) ) ",
"^ ) ^ / ( ^ / / ( _ ^ ) ^ / ( ^ / / : < ) ( ) ",
"[ [ : [ : [ : : : : [ [ : [ : [ : [ : : : } : ",
"| } 1 1 2 2 1 2 2 | | } 1 1 2 2 1 2 3 2 2 } 2 ",
"| | 4 5 | 4 5 | 6 7 8 9 8 7 0 4 5 5 5 a a | 4 ",
"b 4 c 4 b c b d e e e e e e e d b 4 b b 4 c 4 ",
"f f c c g f d h h e e e e e h h d g i j k g g ",
"i i l m i n e h m o e e e m i h e p i i m i o ",
"q r m s s t e e s s q e m s s e e t q m s u s ",
"v v r v w x e e e s v v r v e e e x y w z z z ",
"A B B w C 9 e e e e A B B e e e e 9 w C A A A ",
"D B B B B E e e e B D B B B e e e E B B B B B ",
"F G F H H I e e J K F e F H H e e L G G G G G ",
"M N M M O P e h Q G e e e M O h e R G N N S N ",
"T U T V V T W h h e e e e e h h W V V V V V V ",
"X Y Y Y Z T Z ` e e e e e e e ` Z T Y Y X X Y ",
" ...+.@.+.+.#.@.$.%.h 9 h &.$.+.#.@...Y ....+.",
"@.*.=.*.*.*.*.@.*.@.@.*.=.*.*.*.*.-.@.*.;.*.@.",
"-.>.>.>.>.*.>.>.=.-.-.>.>.>.>.*.>.,.=.=.>.>.-.",
"'.).!.'.'.'.'.!.).~.'.).!.'.'.'.'.).).'.).).~.",
"{.{.].].{.].^.{.{.].{.{.].].{.].^.{.{.{.{.{.].",
"/.^.^.(._.(.^.:.(._./.^.^.(._.(.^./.^.{.<.^./.",
"[.}.|.1.(.[.[.(.1.2.[.}.|.1.(.[.[.1.1.(.}.(.1.",
"3.|.4.|.|.|.|.|.|.5.3.|.4.|.|.|.|.|.|.|.|.|.3.",
"6.5.6.. 3.7.3.8.3.7.6.5.6.. 3.7.3.5.9.3.7.3.7."};
