/* XPM */
static char * hide_inactive_xpm[] = {
"23 30 115 2",
"  	c None",
". 	c #4E5051",
"+ 	c #606266",
"@ 	c #616366",
"# 	c #606366",
"$ 	c #606265",
"% 	c #616265",
"& 	c #616365",
"* 	c #5F6264",
"= 	c #5F6265",
"- 	c #5F6164",
"; 	c #606164",
"> 	c #606165",
", 	c #5E6164",
"' 	c #5F6163",
") 	c #5E6063",
"! 	c #5F6063",
"~ 	c #5E6163",
"{ 	c #5F6064",
"] 	c #5E6064",
"^ 	c #5E6062",
"/ 	c #5D6062",
"( 	c #5E5F62",
"_ 	c #5D5F63",
": 	c #5D5F62",
"< 	c #5D6063",
"[ 	c #5D5F61",
"} 	c #5D5E61",
"| 	c #5C5E60",
"1 	c #5C5F61",
"2 	c #5C5E61",
"3 	c #5D5E60",
"4 	c #5B5D60",
"5 	c #5C5D60",
"6 	c #5B5E61",
"7 	c #5B5E60",
"8 	c #5B5D5F",
"9 	c #5A5D5F",
"0 	c #5A5D5E",
"a 	c #5A5C5F",
"b 	c #5B5C5F",
"c 	c #5A5C5E",
"d 	c #5B5D5E",
"e 	c #5B5C5E",
"f 	c #5A5B5E",
"g 	c #595B5E",
"h 	c #595C5E",
"i 	c #595A5D",
"j 	c #585B5D",
"k 	c #595B5D",
"l 	c #585B5E",
"m 	c #585B5C",
"n 	c #585A5C",
"o 	c #595B5C",
"p 	c #595A5C",
"q 	c #585A5D",
"r 	c #585A5B",
"s 	c #57595B",
"t 	c #575A5C",
"u 	c #58595C",
"v 	c #575A5B",
"w 	c #57585B",
"x 	c #56595B",
"y 	c #57585A",
"z 	c #56585A",
"A 	c #56585B",
"B 	c #56595A",
"C 	c #57595A",
"D 	c #565859",
"E 	c #555859",
"F 	c #565759",
"G 	c #55575A",
"H 	c #555759",
"I 	c #55585A",
"J 	c #555758",
"K 	c #555659",
"L 	c #999999",
"M 	c #545758",
"N 	c #545658",
"O 	c #555658",
"P 	c #545558",
"Q 	c #545657",
"R 	c #545557",
"S 	c #535557",
"T 	c #535657",
"U 	c #535556",
"V 	c #525556",
"W 	c #535456",
"X 	c #535457",
"Y 	c #525456",
"Z 	c #535455",
"` 	c #515455",
" .	c #525455",
"..	c #525355",
"+.	c #515456",
"@.	c #515354",
"#.	c #515355",
"$.	c #515254",
"%.	c #505254",
"&.	c #505253",
"*.	c #505353",
"=.	c #505354",
"-.	c #515253",
";.	c #4F5253",
">.	c #505252",
",.	c #4F5152",
"'.	c #505153",
").	c #4F5252",
"!.	c #4E5152",
"~.	c #4F5153",
"{.	c #4F5052",
"].	c #4F5151",
"^.	c #4E5052",
"/.	c #4E5151",
"(.	c #4F5051",
". . . . . . . . . . . . . . . . . . . . . . . ",
"+ @ @ # @ @ @ + @ @ + @ @ # @ @ @ @ @ @ @ @ # ",
"$ $ + % + + + + $ + $ $ + % + + + $ $ + + & $ ",
"* = - - ; * * - $ - * = - - ; * * > - = ; $ = ",
"- , - - - - - , ' , - , - - - - - - - - , - , ",
") ! ) ~ ) { ) ) ~ ) ) ! ) ~ ) { ) ) ] ) ) ) ) ",
"^ ) ^ / ( ^ / / ( _ ^ ) ^ / ( ^ / / : < ) ( ) ",
"[ [ : [ : [ : : : : [ [ : [ : [ : [ : : : } : ",
"| } 1 1 2 2 1 2 2 | | } 1 1 2 2 1 2 3 2 2 } 2 ",
"| | 4 5 | 4 5 | 4 6 | | 4 5 | 4 5 5 5 7 7 | 4 ",
"8 4 9 4 8 9 8 8 4 8 8 4 9 4 8 9 8 4 8 8 4 9 4 ",
"0 0 9 9 a 0 b 9 a 9 0 0 9 9 a 0 b a c d e a a ",
"c c f g c g h g g h c c f g c g h c c c g c h ",
"i j g k k k j l k k i j g k k k j k i g k l k ",
"m m j m n j n n n k m m j m n j n o p n q q q ",
"r s s n t r s u v n r s s n t r s v n t r r r ",
"w s s s s s x x s s w s s s s s x s s s s s s ",
"y z y A A z z z B C y z y A A z z y z z z z z ",
"D E D D F G G H I z D E D D F G G I z E E G E ",
"J K J H H J H L L L L L L L L L H H H H H H H ",
"M N N N O J O M J M M N N N O J O J N N M M N ",
"P Q R S R R T S R Q P Q R S R R T S Q N Q Q R ",
"S U V U U U U S U S S U V U U U U W S U X U S ",
"W Y Y Y Y U Y Y V W W Y Y Y Y U Y Z V V Y Y W ",
"`  ...` ` ` ` .. .+.`  ...` ` ` `  . .`  . .+.",
"@.@.#.#.@.#.$.@.@.#.@.@.#.#.@.#.$.@.@.@.@.@.#.",
"%.$.$.&.*.&.$.=.&.*.%.$.$.&.*.&.$.%.$.@.-.$.%.",
";.>.,.'.&.;.;.&.'.).;.>.,.'.&.;.;.'.'.&.>.&.'.",
"!.,.~.,.,.,.,.,.,.{.!.,.~.,.,.,.,.,.,.,.,.,.!.",
"].{.].. !.^.!./.!.^.].{.].. !.^.!.{.(.!.^.!.^."};
