/* XPM */
static char * maximize_toggled_prelight_xpm[] = {
"23 30 114 2",
"  	c None",
". 	c #4E5051",
"+ 	c #606266",
"@ 	c #616366",
"# 	c #606366",
"$ 	c #606265",
"% 	c #616265",
"& 	c #616365",
"* 	c #5F6264",
"= 	c #5F6265",
"- 	c #5F6164",
"; 	c #606164",
"> 	c #606165",
", 	c #5E6164",
"' 	c #5F6163",
") 	c #5E6063",
"! 	c #5F6063",
"~ 	c #5E6163",
"{ 	c #5F6064",
"] 	c #5E6064",
"^ 	c #5E6062",
"/ 	c #5D6062",
"( 	c #5E5F62",
"_ 	c #5D5F63",
": 	c #5D5F62",
"< 	c #5D6063",
"[ 	c #5D5F61",
"} 	c #5D5E61",
"| 	c #5C5E60",
"1 	c #5C5F61",
"2 	c #5C5E61",
"3 	c #5D5E60",
"4 	c #5B5D60",
"5 	c #5C5D60",
"6 	c #5B5E61",
"7 	c #5B5E60",
"8 	c #5B5D5F",
"9 	c #5A5D5F",
"0 	c #5A5D5E",
"a 	c #5A5C5F",
"b 	c #5B5C5F",
"c 	c #5A5C5E",
"d 	c #5B5D5E",
"e 	c #5B5C5E",
"f 	c #5A5B5E",
"g 	c #595B5E",
"h 	c #595C5E",
"i 	c #CFCFCF",
"j 	c #595A5D",
"k 	c #585B5D",
"l 	c #595B5D",
"m 	c #585B5E",
"n 	c #585B5C",
"o 	c #585A5C",
"p 	c #595B5C",
"q 	c #595A5C",
"r 	c #585A5D",
"s 	c #585A5B",
"t 	c #57595B",
"u 	c #575A5C",
"v 	c #58595C",
"w 	c #575A5B",
"x 	c #57585B",
"y 	c #56595B",
"z 	c #57585A",
"A 	c #56585A",
"B 	c #56585B",
"C 	c #57595A",
"D 	c #565859",
"E 	c #555859",
"F 	c #565759",
"G 	c #55575A",
"H 	c #555759",
"I 	c #55585A",
"J 	c #555758",
"K 	c #555659",
"L 	c #545758",
"M 	c #545658",
"N 	c #555658",
"O 	c #545558",
"P 	c #545657",
"Q 	c #545557",
"R 	c #535557",
"S 	c #535657",
"T 	c #535556",
"U 	c #525556",
"V 	c #535456",
"W 	c #535457",
"X 	c #525456",
"Y 	c #535455",
"Z 	c #515455",
"` 	c #525455",
" .	c #525355",
"..	c #515456",
"+.	c #515354",
"@.	c #515355",
"#.	c #515254",
"$.	c #505254",
"%.	c #505253",
"&.	c #505353",
"*.	c #505354",
"=.	c #515253",
"-.	c #4F5253",
";.	c #505252",
">.	c #4F5152",
",.	c #505153",
"'.	c #4F5252",
").	c #4E5152",
"!.	c #4F5153",
"~.	c #4F5052",
"{.	c #4F5151",
"].	c #4E5052",
"^.	c #4E5151",
"/.	c #4F5051",
". . . . . . . . . . . . . . . . . . . . . . . ",
"+ @ @ # @ @ @ + @ @ + @ @ # @ @ @ @ @ @ @ @ # ",
"$ $ + % + + + + $ + $ $ + % + + + $ $ + + & $ ",
"* = - - ; * * - $ - * = - - ; * * > - = ; $ = ",
"- , - - - - - , ' , - , - - - - - - - - , - , ",
") ! ) ~ ) { ) ) ~ ) ) ! ) ~ ) { ) ) ] ) ) ) ) ",
"^ ) ^ / ( ^ / / ( _ ^ ) ^ / ( ^ / / : < ) ( ) ",
"[ [ : [ : [ : : : : [ [ : [ : [ : [ : : : } : ",
"| } 1 1 2 2 1 2 2 | | } 1 1 2 2 1 2 3 2 2 } 2 ",
"| | 4 5 | 4 5 | 4 6 | | 4 5 | 4 5 5 5 7 7 | 4 ",
"8 4 9 4 8 9 8 8 4 8 8 4 9 4 8 9 8 4 8 8 4 9 4 ",
"0 0 9 9 a 0 b 9 a 9 0 0 9 9 a 0 b a c d e a a ",
"c c f g c g h g i i i i i i i g h c c c g c h ",
"j k g l l l k m i l j k g l i l k l j g l m l ",
"n n k n o k o o i l n n k n i k o p q o r r r ",
"s t t o u s t v i o s t t o i s t w o u s s s ",
"x t t t t t y y i t x t t t i t y t t t t t t ",
"z A z B B A A A i C z A z B i A A z A A A A A ",
"D E D D F G G H i i i i i i i G G I A E E G E ",
"J K J H H J H H H J J K J H H J H H H H H H H ",
"L M M M N J N L J L L M M M N J N J M M L L M ",
"O P Q R Q Q S R Q P O P Q R Q Q S R P M P P Q ",
"R T U T T T T R T R R T U T T T T V R T W T R ",
"V X X X X T X X U V V X X X X T X Y U U X X V ",
"Z `  .Z Z Z Z  .` ..Z `  .Z Z Z Z ` ` Z ` ` ..",
"+.+.@.@.+.@.#.+.+.@.+.+.@.@.+.@.#.+.+.+.+.+.@.",
"$.#.#.%.&.%.#.*.%.&.$.#.#.%.&.%.#.$.#.+.=.#.$.",
"-.;.>.,.%.-.-.%.,.'.-.;.>.,.%.-.-.,.,.%.;.%.,.",
").>.!.>.>.>.>.>.>.~.).>.!.>.>.>.>.>.>.>.>.>.).",
"{.~.{.. ).].).^.).].{.~.{.. ).].).~./.).].).]."};
