/* XPM */
static char * menu_pressed_xpm[] = {
"24 30 118 2",
"  	c None",
". 	c #4E5051",
"+ 	c #616366",
"@ 	c #606266",
"# 	c #606366",
"$ 	c #606265",
"% 	c #616265",
"& 	c #5F6164",
"* 	c #5F6264",
"= 	c #5F6265",
"- 	c #606164",
"; 	c #606165",
"> 	c #606264",
", 	c #5F6163",
"' 	c #5E6164",
") 	c #5F6063",
"! 	c #5E6163",
"~ 	c #5E6063",
"{ 	c #5F6064",
"] 	c #5E6064",
"^ 	c #5E5F62",
"/ 	c #5D5F63",
"( 	c #5E6062",
"_ 	c #5D6062",
": 	c #5D5F62",
"< 	c #5D6063",
"[ 	c #5E5F63",
"} 	c #5D5F61",
"| 	c #5C5E62",
"1 	c #5C5E61",
"2 	c #5C5E60",
"3 	c #5D5E61",
"4 	c #5C5F61",
"5 	c #5D5E60",
"6 	c #5B5D60",
"7 	c #5B5E61",
"8 	c #5C5D60",
"9 	c #5B5E60",
"0 	c #5B5D5F",
"a 	c #5A5D5F",
"b 	c #5A5C5F",
"c 	c #5A5D5E",
"d 	c #5B5C5F",
"e 	c #5A5C5E",
"f 	c #5B5D5E",
"g 	c #5B5C5E",
"h 	c #595B5E",
"i 	c #595C5E",
"j 	c #5A5B5E",
"k 	c #595B5D",
"l 	c #595A5D",
"m 	c #585B5D",
"n 	c #585B5E",
"o 	c #585A5C",
"p 	c #585B5C",
"q 	c #595B5C",
"r 	c #595A5C",
"s 	c #585A5D",
"t 	c #575A5B",
"u 	c #585A5B",
"v 	c #57595B",
"w 	c #575A5C",
"x 	c #58595C",
"y 	c #57585B",
"z 	c #56595B",
"A 	c #56595A",
"B 	c #57595A",
"C 	c #57585A",
"D 	c #56585A",
"E 	c #56585B",
"F 	c #55585A",
"G 	c #565859",
"H 	c #555859",
"I 	c #565759",
"J 	c #55575A",
"K 	c #555759",
"L 	c #555758",
"M 	c #555659",
"N 	c #545758",
"O 	c #545658",
"P 	c #555658",
"Q 	c #545557",
"R 	c #545657",
"S 	c #545558",
"T 	c #535557",
"U 	c #535657",
"V 	c #535558",
"W 	c #535556",
"X 	c #525556",
"Y 	c #535456",
"Z 	c #535457",
"` 	c #525557",
" .	c #525456",
"..	c #535455",
"+.	c #525455",
"@.	c #515456",
"#.	c #515455",
"$.	c #525355",
"%.	c #515354",
"&.	c #515355",
"*.	c #515254",
"=.	c #505253",
"-.	c #505353",
";.	c #505254",
">.	c #515253",
",.	c #505354",
"'.	c #505153",
").	c #4F5252",
"!.	c #4F5253",
"~.	c #505252",
"{.	c #4F5152",
"].	c #4F5052",
"^.	c #4E5152",
"/.	c #4F5153",
"(.	c #4E5052",
"_.	c #4F5151",
":.	c #4F5051",
"<.	c #4E5151",
". . . . . . . . . . . . . . . . . . . . . . . . ",
"+ + @ + + # + + + + + + + + + # @ + + @ + + # + ",
"$ @ $ $ @ % @ @ @ $ $ @ @ @ $ $ @ $ @ $ $ @ % @ ",
"$ & * = & & - * * ; & = - > ; * & $ & * = & & - ",
", ' & ' & & & & & & & & ' ) & & ' , ' & ' & & & ",
"! ~ ~ ) ~ ! ~ { ~ ~ ] ~ ~ ] ~ ~ ~ ! ~ ~ ) ~ ! ~ ",
"^ / ( ~ ( _ ^ ( _ _ : < ~ ( [ _ _ ^ / ( ~ ( _ ^ ",
": : } } : } : } : } : : : : | } : : : } } : } : ",
"1 2 2 3 4 4 1 1 4 1 5 1 1 1 1 1 1 1 2 2 3 4 4 1 ",
"6 7 2 2 6 8 2 6 8 8 8 9 9 2 6 2 2 6 7 2 2 6 8 2 ",
"6 0 0 6 a 6 0 a 0 6 0 0 6 6 0 6 0 6 0 0 6 a 6 0 ",
"b a c c a a b c d b e f g b b d a b a c c a a b ",
"h i e e j h e h i e e e h h h h h h i e e j h e ",
"k k l m h k k k m k l h k k h k n k k l m h k k ",
"o k p p m p o m o q r o s o s s o o k p p m p o ",
"t o u v v o w u v t o w u t w w x t o u v v o w ",
"v v y v v v v v z v v v v v v v z v v y v v v v ",
"A B C D C E E D D C D D D B D C D A B C D C E E ",
"F D G H G G I J J F D H H F J F K F D G H G G I ",
"K L L M L K K L K K K K K K K K K K L L M L K K ",
"L N N O O O P L P L O O N P O P N L N N O O O P ",
"Q R S R Q T Q Q U T R O R R V S T Q R S R Q T Q ",
"W T T W X W W W W Y T W Z T T ` T W T T W X W W ",
"X Y Y  . . . .W  ...X X  .X X  . .X Y Y  . . . .",
"+.@.#.+.$.#.#.#.#.+.+.#.+.+.+.+.$.+.@.#.+.$.#.#.",
"%.&.%.%.&.&.%.&.*.%.%.%.%.&.%.%.%.%.&.%.%.&.&.%.",
"=.-.;.*.*.=.-.=.*.;.*.%.>.>.;.;.,.=.-.;.*.*.=.-.",
"'.).!.~.{.'.=.!.!.'.'.=.~.=.~.'.=.'.).!.~.{.'.=.",
"{.].^.{./.{.{.{.{.{.{.{.{.{.{.{.{.{.].^.{./.{.{.",
"^.(._.]._.. ^.(.^.].:.^.(.^.^.. <.^.(._.]._.. ^."};
