/* XPM */
static char * right_inactive_xpm[] = {
"4 21 3 1",
" 	c None",
".	c #4E5051",
"+	c #4F5253",
".++.",
".++.",
".++.",
".++.",
".++.",
".++.",
".++.",
".++.",
".++.",
".++.",
".++.",
".++.",
".++.",
".++.",
".++.",
".++.",
".++.",
".++.",
".++.",
".++.",
".++."};
