/* XPM */
static char * shade_toggled_active_xpm[] = {
"23 30 112 2",
"  	c None",
". 	c #4E5051",
"+ 	c #606266",
"@ 	c #616366",
"# 	c #606366",
"$ 	c #606265",
"% 	c #616265",
"& 	c #616365",
"* 	c #5F6264",
"= 	c #5F6265",
"- 	c #5F6164",
"; 	c #606164",
"> 	c #606165",
", 	c #5E6164",
"' 	c #5F6163",
") 	c #5E6063",
"! 	c #5F6063",
"~ 	c #5E6163",
"{ 	c #5F6064",
"] 	c #5E6064",
"^ 	c #5E6062",
"/ 	c #5D6062",
"( 	c #5E5F62",
"_ 	c #5D5F63",
": 	c #5D5F62",
"< 	c #5D6063",
"[ 	c #5D5F61",
"} 	c #5D5E61",
"| 	c #5C5E60",
"1 	c #5C5F61",
"2 	c #5C5E61",
"3 	c #5D5E60",
"4 	c #5B5D60",
"5 	c #5C5D60",
"6 	c #5B5E61",
"7 	c #5B5E60",
"8 	c #5B5D5F",
"9 	c #5A5D5F",
"0 	c #FFFFFF",
"a 	c #5A5D5E",
"b 	c #5A5C5F",
"c 	c #5A5C5E",
"d 	c #5B5D5E",
"e 	c #5B5C5E",
"f 	c #5A5B5E",
"g 	c #595B5E",
"h 	c #595C5E",
"i 	c #595A5D",
"j 	c #585B5D",
"k 	c #595B5D",
"l 	c #585B5E",
"m 	c #585B5C",
"n 	c #585A5C",
"o 	c #595B5C",
"p 	c #595A5C",
"q 	c #585A5D",
"r 	c #585A5B",
"s 	c #57595B",
"t 	c #575A5C",
"u 	c #575A5B",
"v 	c #57585B",
"w 	c #56595B",
"x 	c #57585A",
"y 	c #56585A",
"z 	c #56585B",
"A 	c #57595A",
"B 	c #565859",
"C 	c #555859",
"D 	c #565759",
"E 	c #55575A",
"F 	c #555759",
"G 	c #55585A",
"H 	c #555758",
"I 	c #555659",
"J 	c #545758",
"K 	c #545658",
"L 	c #555658",
"M 	c #545558",
"N 	c #545657",
"O 	c #545557",
"P 	c #535557",
"Q 	c #535657",
"R 	c #535556",
"S 	c #525556",
"T 	c #535456",
"U 	c #535457",
"V 	c #525456",
"W 	c #535455",
"X 	c #515455",
"Y 	c #525455",
"Z 	c #525355",
"` 	c #515456",
" .	c #515354",
"..	c #515355",
"+.	c #515254",
"@.	c #505254",
"#.	c #505253",
"$.	c #505353",
"%.	c #505354",
"&.	c #515253",
"*.	c #4F5253",
"=.	c #505252",
"-.	c #4F5152",
";.	c #505153",
">.	c #4F5252",
",.	c #4E5152",
"'.	c #4F5153",
").	c #4F5052",
"!.	c #4F5151",
"~.	c #4E5052",
"{.	c #4E5151",
"].	c #4F5051",
". . . . . . . . . . . . . . . . . . . . . . . ",
"+ @ @ # @ @ @ + @ @ + @ @ # @ @ @ @ @ @ @ @ # ",
"$ $ + % + + + + $ + $ $ + % + + + $ $ + + & $ ",
"* = - - ; * * - $ - * = - - ; * * > - = ; $ = ",
"- , - - - - - , ' , - , - - - - - - - - , - , ",
") ! ) ~ ) { ) ) ~ ) ) ! ) ~ ) { ) ) ] ) ) ) ) ",
"^ ) ^ / ( ^ / / ( _ ^ ) ^ / ( ^ / / : < ) ( ) ",
"[ [ : [ : [ : : : : [ [ : [ : [ : [ : : : } : ",
"| } 1 1 2 2 1 2 2 | | } 1 1 2 2 1 2 3 2 2 } 2 ",
"| | 4 5 | 4 5 | 4 6 | | 4 5 | 4 5 5 5 7 7 | 4 ",
"8 4 9 4 8 9 0 0 0 0 0 0 0 0 0 0 0 4 8 8 4 9 4 ",
"a a 9 9 b a 0 9 b 9 a a 9 9 b a 0 b c d e b b ",
"c c f g c g 0 g g h c c f g c g 0 c c c g c h ",
"i j g k k k 0 0 0 0 0 0 0 0 0 0 0 k i g k l k ",
"m m j m n j n n n k m m j m n j n o p n q q q ",
"r s s n t r 0 0 0 0 0 0 0 0 0 0 0 u n t r r r ",
"v s s s s s w 0 s s v s s s s 0 w s s s s s s ",
"x y x z z y y y 0 A x y x z 0 y y x y y y y y ",
"B C B B D E E F G 0 B C B 0 D E E G y C C E C ",
"H I H F F H F F F H 0 I 0 F F H F F F F F F F ",
"J K K K L H L J H J J 0 K K L H L H K K J J K ",
"M N O P O O Q P O N M N O P O O Q P N K N N O ",
"P R S R R R R P R P P R S R R R R T P R U R P ",
"T V V V V R V V S T T V V V V R V W S S V V T ",
"X Y Z X X X X Z Y ` X Y Z X X X X Y Y X Y Y ` ",
" . ..... ...+. . ... . ..... ...+. . . . . ...",
"@.+.+.#.$.#.+.%.#.$.@.+.+.#.$.#.+.@.+. .&.+.@.",
"*.=.-.;.#.*.*.#.;.>.*.=.-.;.#.*.*.;.;.#.=.#.;.",
",.-.'.-.-.-.-.-.-.).,.-.'.-.-.-.-.-.-.-.-.-.,.",
"!.).!.. ,.~.,.{.,.~.!.).!.. ,.~.,.).].,.~.,.~."};
