/* XPM */
static char * shade_prelight_xpm[] = {
"23 30 112 2",
"  	c None",
". 	c #4E5051",
"+ 	c #606266",
"@ 	c #616366",
"# 	c #606366",
"$ 	c #606265",
"% 	c #616265",
"& 	c #616365",
"* 	c #5F6264",
"= 	c #5F6265",
"- 	c #5F6164",
"; 	c #606164",
"> 	c #606165",
", 	c #5E6164",
"' 	c #5F6163",
") 	c #5E6063",
"! 	c #5F6063",
"~ 	c #5E6163",
"{ 	c #5F6064",
"] 	c #5E6064",
"^ 	c #5E6062",
"/ 	c #5D6062",
"( 	c #5E5F62",
"_ 	c #5D5F63",
": 	c #5D5F62",
"< 	c #5D6063",
"[ 	c #5D5F61",
"} 	c #5D5E61",
"| 	c #5C5E60",
"1 	c #5C5F61",
"2 	c #5C5E61",
"3 	c #5D5E60",
"4 	c #5B5D60",
"5 	c #5C5D60",
"6 	c #5B5E61",
"7 	c #5B5E60",
"8 	c #5B5D5F",
"9 	c #5A5D5F",
"0 	c #CFCFCF",
"a 	c #5A5D5E",
"b 	c #5A5C5F",
"c 	c #5B5C5F",
"d 	c #5A5C5E",
"e 	c #5B5D5E",
"f 	c #5B5C5E",
"g 	c #5A5B5E",
"h 	c #595B5E",
"i 	c #595C5E",
"j 	c #595A5D",
"k 	c #585B5D",
"l 	c #595B5D",
"m 	c #585B5E",
"n 	c #585B5C",
"o 	c #585A5C",
"p 	c #595B5C",
"q 	c #595A5C",
"r 	c #585A5D",
"s 	c #585A5B",
"t 	c #57595B",
"u 	c #575A5C",
"v 	c #575A5B",
"w 	c #57585B",
"x 	c #56595B",
"y 	c #57585A",
"z 	c #56585A",
"A 	c #56585B",
"B 	c #565859",
"C 	c #555859",
"D 	c #565759",
"E 	c #55575A",
"F 	c #555759",
"G 	c #55585A",
"H 	c #555758",
"I 	c #555659",
"J 	c #545758",
"K 	c #545658",
"L 	c #555658",
"M 	c #545558",
"N 	c #545657",
"O 	c #545557",
"P 	c #535557",
"Q 	c #535657",
"R 	c #535556",
"S 	c #525556",
"T 	c #535456",
"U 	c #535457",
"V 	c #525456",
"W 	c #535455",
"X 	c #515455",
"Y 	c #525455",
"Z 	c #525355",
"` 	c #515456",
" .	c #515354",
"..	c #515355",
"+.	c #515254",
"@.	c #505254",
"#.	c #505253",
"$.	c #505353",
"%.	c #505354",
"&.	c #515253",
"*.	c #4F5253",
"=.	c #505252",
"-.	c #4F5152",
";.	c #505153",
">.	c #4F5252",
",.	c #4E5152",
"'.	c #4F5153",
").	c #4F5052",
"!.	c #4F5151",
"~.	c #4E5052",
"{.	c #4E5151",
"].	c #4F5051",
". . . . . . . . . . . . . . . . . . . . . . . ",
"+ @ @ # @ @ @ + @ @ + @ @ # @ @ @ @ @ @ @ @ # ",
"$ $ + % + + + + $ + $ $ + % + + + $ $ + + & $ ",
"* = - - ; * * - $ - * = - - ; * * > - = ; $ = ",
"- , - - - - - , ' , - , - - - - - - - - , - , ",
") ! ) ~ ) { ) ) ~ ) ) ! ) ~ ) { ) ) ] ) ) ) ) ",
"^ ) ^ / ( ^ / / ( _ ^ ) ^ / ( ^ / / : < ) ( ) ",
"[ [ : [ : [ : : : : [ [ : [ : [ : [ : : : } : ",
"| } 1 1 2 2 1 2 2 | | } 1 1 2 2 1 2 3 2 2 } 2 ",
"| | 4 5 | 4 5 | 4 6 | | 4 5 | 4 5 5 5 7 7 | 4 ",
"8 4 9 4 8 9 8 8 4 8 8 0 9 4 8 9 8 4 8 8 4 9 4 ",
"a a 9 9 b a c 9 b 9 0 a 0 9 b a c b d e f b b ",
"d d g h d h i h h 0 d d g 0 d h i d d d h d i ",
"j k h l l l k m 0 l j k h l 0 l k l j h l m l ",
"n n k n o k o 0 o l n n k n o 0 o p q o r r r ",
"s t t o u s 0 0 0 0 0 0 0 0 0 0 0 v o u s s s ",
"w t t t t t x x t t w t t t t t x t t t t t t ",
"y z y A A z 0 0 0 0 0 0 0 0 0 0 0 y z z z z z ",
"B C B B D E 0 F G z B C B B D E 0 G z C C E C ",
"H I H F F H 0 F F H H I H F F H 0 F F F F F F ",
"J K K K L H 0 0 0 0 0 0 0 0 0 0 0 H K K J J K ",
"M N O P O O Q P O N M N O P O O Q P N K N N O ",
"P R S R R R R P R P P R S R R R R T P R U R P ",
"T V V V V R V V S T T V V V V R V W S S V V T ",
"X Y Z X X X X Z Y ` X Y Z X X X X Y Y X Y Y ` ",
" . ..... ...+. . ... . ..... ...+. . . . . ...",
"@.+.+.#.$.#.+.%.#.$.@.+.+.#.$.#.+.@.+. .&.+.@.",
"*.=.-.;.#.*.*.#.;.>.*.=.-.;.#.*.*.;.;.#.=.#.;.",
",.-.'.-.-.-.-.-.-.).,.-.'.-.-.-.-.-.-.-.-.-.,.",
"!.).!.. ,.~.,.{.,.~.!.).!.. ,.~.,.).].,.~.,.~."};
