/* XPM */
static char * stick_inactive_xpm[] = {
"23 30 121 2",
"  	c None",
". 	c #4E5051",
"+ 	c #606266",
"@ 	c #616366",
"# 	c #606366",
"$ 	c #606265",
"% 	c #616265",
"& 	c #616365",
"* 	c #5F6264",
"= 	c #5F6265",
"- 	c #5F6164",
"; 	c #606164",
"> 	c #606165",
", 	c #5E6164",
"' 	c #5F6163",
") 	c #5E6063",
"! 	c #5F6063",
"~ 	c #5E6163",
"{ 	c #5F6064",
"] 	c #5E6064",
"^ 	c #5E6062",
"/ 	c #5D6062",
"( 	c #5E5F62",
"_ 	c #5D5F63",
": 	c #5D5F62",
"< 	c #5D6063",
"[ 	c #5D5F61",
"} 	c #5D5E61",
"| 	c #5C5E60",
"1 	c #5C5F61",
"2 	c #5C5E61",
"3 	c #5D5E60",
"4 	c #5B5D60",
"5 	c #5C5D60",
"6 	c #5B5E61",
"7 	c #5B5E60",
"8 	c #5B5D5F",
"9 	c #5A5D5F",
"0 	c #5A5D5E",
"a 	c #5A5C5F",
"b 	c #5B5C5F",
"c 	c #5A5C5E",
"d 	c #5B5D5E",
"e 	c #5B5C5E",
"f 	c #5A5B5E",
"g 	c #595B5E",
"h 	c #595C5E",
"i 	c #646668",
"j 	c #999999",
"k 	c #595A5D",
"l 	c #585B5D",
"m 	c #595B5D",
"n 	c #636668",
"o 	c #7B7B7D",
"p 	c #7A7C7D",
"q 	c #585B5E",
"r 	c #585B5C",
"s 	c #585A5C",
"t 	c #595B5C",
"u 	c #595A5C",
"v 	c #585A5D",
"w 	c #585A5B",
"x 	c #57595B",
"y 	c #575A5C",
"z 	c #7A7B7C",
"A 	c #575A5B",
"B 	c #57585B",
"C 	c #56595B",
"D 	c #57585A",
"E 	c #56585A",
"F 	c #56585B",
"G 	c #57595A",
"H 	c #565859",
"I 	c #555859",
"J 	c #565759",
"K 	c #55575A",
"L 	c #616364",
"M 	c #797A7B",
"N 	c #626364",
"O 	c #55585A",
"P 	c #555758",
"Q 	c #555659",
"R 	c #555759",
"S 	c #545758",
"T 	c #545658",
"U 	c #555658",
"V 	c #545558",
"W 	c #545657",
"X 	c #545557",
"Y 	c #535557",
"Z 	c #535657",
"` 	c #535556",
" .	c #525556",
"..	c #535456",
"+.	c #535457",
"@.	c #525456",
"#.	c #535455",
"$.	c #515455",
"%.	c #525455",
"&.	c #525355",
"*.	c #515456",
"=.	c #515354",
"-.	c #515355",
";.	c #515254",
">.	c #505254",
",.	c #505253",
"'.	c #505353",
").	c #505354",
"!.	c #515253",
"~.	c #4F5253",
"{.	c #505252",
"].	c #4F5152",
"^.	c #505153",
"/.	c #4F5252",
"(.	c #4E5152",
"_.	c #4F5153",
":.	c #4F5052",
"<.	c #4F5151",
"[.	c #4E5052",
"}.	c #4E5151",
"|.	c #4F5051",
". . . . . . . . . . . . . . . . . . . . . . . ",
"+ @ @ # @ @ @ + @ @ + @ @ # @ @ @ @ @ @ @ @ # ",
"$ $ + % + + + + $ + $ $ + % + + + $ $ + + & $ ",
"* = - - ; * * - $ - * = - - ; * * > - = ; $ = ",
"- , - - - - - , ' , - , - - - - - - - - , - , ",
") ! ) ~ ) { ) ) ~ ) ) ! ) ~ ) { ) ) ] ) ) ) ) ",
"^ ) ^ / ( ^ / / ( _ ^ ) ^ / ( ^ / / : < ) ( ) ",
"[ [ : [ : [ : : : : [ [ : [ : [ : [ : : : } : ",
"| } 1 1 2 2 1 2 2 | | } 1 1 2 2 1 2 3 2 2 } 2 ",
"| | 4 5 | 4 5 | 4 6 | | 4 5 | 4 5 5 5 7 7 | 4 ",
"8 4 9 4 8 9 8 8 4 8 8 4 9 4 8 9 8 4 8 8 4 9 4 ",
"0 0 9 9 a 0 b 9 a 9 0 0 9 9 a 0 b a c d e a a ",
"c c f g c g h g i j j j j i c g h c c c g c h ",
"k l g m m m l n j j o p j j i m l m k g m q m ",
"r r l r s l s j j m r r l j j l s t u s v v v ",
"w x x s y w x j z s w x x z j w x A s y w w w ",
"B x x x x x C j z x B x x z j x C x x x x x x ",
"D E D F F E E j j G D E D j j E E D E E E E E ",
"H I H H J K K L j j M M j j N K K O E I I K I ",
"P Q P R R P R R L j j j j L R P R R R R R R R ",
"S T T T U P U S P S S T T T U P U P T T S S T ",
"V W X Y X X Z Y X W V W X Y X X Z Y W T W W X ",
"Y `  .` ` ` ` Y ` Y Y `  .` ` ` ` ..Y ` +.` Y ",
"..@.@.@.@.` @.@. .....@.@.@.@.` @.#. . .@.@...",
"$.%.&.$.$.$.$.&.%.*.$.%.&.$.$.$.$.%.%.$.%.%.*.",
"=.=.-.-.=.-.;.=.=.-.=.=.-.-.=.-.;.=.=.=.=.=.-.",
">.;.;.,.'.,.;.).,.'.>.;.;.,.'.,.;.>.;.=.!.;.>.",
"~.{.].^.,.~.~.,.^./.~.{.].^.,.~.~.^.^.,.{.,.^.",
"(.]._.].].].].].].:.(.]._.].].].].].].].].].(.",
"<.:.<.. (.[.(.}.(.[.<.:.<.. (.[.(.:.|.(.[.(.[."};
