/* XPM */
static char * stick_toggled_active_xpm[] = {
"23 30 122 2",
"  	c None",
". 	c #4E5051",
"+ 	c #606266",
"@ 	c #616366",
"# 	c #606366",
"$ 	c #606265",
"% 	c #616265",
"& 	c #616365",
"* 	c #5F6264",
"= 	c #5F6265",
"- 	c #5F6164",
"; 	c #606164",
"> 	c #606165",
", 	c #5E6164",
"' 	c #5F6163",
") 	c #5E6063",
"! 	c #5F6063",
"~ 	c #5E6163",
"{ 	c #5F6064",
"] 	c #5E6064",
"^ 	c #5E6062",
"/ 	c #5D6062",
"( 	c #5E5F62",
"_ 	c #5D5F63",
": 	c #5D5F62",
"< 	c #5D6063",
"[ 	c #5D5F61",
"} 	c #5D5E61",
"| 	c #5C5E60",
"1 	c #5C5F61",
"2 	c #5C5E61",
"3 	c #5D5E60",
"4 	c #5B5D60",
"5 	c #5C5D60",
"6 	c #5B5E61",
"7 	c #5B5E60",
"8 	c #5B5D5F",
"9 	c #5A5D5F",
"0 	c #5A5D5E",
"a 	c #5A5C5F",
"b 	c #5B5C5F",
"c 	c #5A5C5E",
"d 	c #5B5D5E",
"e 	c #5B5C5E",
"f 	c #5A5B5E",
"g 	c #595B5E",
"h 	c #595C5E",
"i 	c #77797B",
"j 	c #FFFFFF",
"k 	c #595A5D",
"l 	c #585B5D",
"m 	c #595B5D",
"n 	c #76797B",
"o 	c #B2B2B4",
"p 	c #B1B3B4",
"q 	c #77797A",
"r 	c #585B5E",
"s 	c #585B5C",
"t 	c #585A5C",
"u 	c #595B5C",
"v 	c #595A5C",
"w 	c #585A5D",
"x 	c #585A5B",
"y 	c #57595B",
"z 	c #575A5C",
"A 	c #B1B2B3",
"B 	c #575A5B",
"C 	c #57585B",
"D 	c #56595B",
"E 	c #57585A",
"F 	c #56585A",
"G 	c #56585B",
"H 	c #57595A",
"I 	c #565859",
"J 	c #555859",
"K 	c #565759",
"L 	c #55575A",
"M 	c #747577",
"N 	c #B0B1B2",
"O 	c #757577",
"P 	c #55585A",
"Q 	c #555758",
"R 	c #555659",
"S 	c #555759",
"T 	c #545758",
"U 	c #545658",
"V 	c #555658",
"W 	c #545558",
"X 	c #545657",
"Y 	c #545557",
"Z 	c #535557",
"` 	c #535657",
" .	c #535556",
"..	c #525556",
"+.	c #535456",
"@.	c #535457",
"#.	c #525456",
"$.	c #535455",
"%.	c #515455",
"&.	c #525455",
"*.	c #525355",
"=.	c #515456",
"-.	c #515354",
";.	c #515355",
">.	c #515254",
",.	c #505254",
"'.	c #505253",
").	c #505353",
"!.	c #505354",
"~.	c #515253",
"{.	c #4F5253",
"].	c #505252",
"^.	c #4F5152",
"/.	c #505153",
"(.	c #4F5252",
"_.	c #4E5152",
":.	c #4F5153",
"<.	c #4F5052",
"[.	c #4F5151",
"}.	c #4E5052",
"|.	c #4E5151",
"1.	c #4F5051",
". . . . . . . . . . . . . . . . . . . . . . . ",
"+ @ @ # @ @ @ + @ @ + @ @ # @ @ @ @ @ @ @ @ # ",
"$ $ + % + + + + $ + $ $ + % + + + $ $ + + & $ ",
"* = - - ; * * - $ - * = - - ; * * > - = ; $ = ",
"- , - - - - - , ' , - , - - - - - - - - , - , ",
") ! ) ~ ) { ) ) ~ ) ) ! ) ~ ) { ) ) ] ) ) ) ) ",
"^ ) ^ / ( ^ / / ( _ ^ ) ^ / ( ^ / / : < ) ( ) ",
"[ [ : [ : [ : : : : [ [ : [ : [ : [ : : : } : ",
"| } 1 1 2 2 1 2 2 | | } 1 1 2 2 1 2 3 2 2 } 2 ",
"| | 4 5 | 4 5 | 4 6 | | 4 5 | 4 5 5 5 7 7 | 4 ",
"8 4 9 4 8 9 8 8 4 8 8 4 9 4 8 9 8 4 8 8 4 9 4 ",
"0 0 9 9 a 0 b 9 a 9 0 0 9 9 a 0 b a c d e a a ",
"c c f g c g h g i j j j j i c g h c c c g c h ",
"k l g m m m l n j j o p j j q m l m k g m r m ",
"s s l s t l t j j m s s l j j l t u v t w w w ",
"x y y t z x y j A t j j y A j x y B t z x x x ",
"C y y y y y D j A y j j y A j y D y y y y y y ",
"E F E G G F F j j H E F E j j F F E F F F F F ",
"I J I I K L L M j j N N j j O L L P F J J L J ",
"Q R Q S S Q S S M j j j j M S Q S S S S S S S ",
"T U U U V Q V T Q T T U U U V Q V Q U U T T U ",
"W X Y Z Y Y ` Z Y X W X Y Z Y Y ` Z X U X X Y ",
"Z  ... . . . .Z  .Z Z  ... . . . .+.Z  .@. .Z ",
"+.#.#.#.#. .#.#...+.+.#.#.#.#. .#.$.....#.#.+.",
"%.&.*.%.%.%.%.*.&.=.%.&.*.%.%.%.%.&.&.%.&.&.=.",
"-.-.;.;.-.;.>.-.-.;.-.-.;.;.-.;.>.-.-.-.-.-.;.",
",.>.>.'.).'.>.!.'.).,.>.>.'.).'.>.,.>.-.~.>.,.",
"{.].^./.'.{.{.'./.(.{.].^./.'.{.{././.'.].'./.",
"_.^.:.^.^.^.^.^.^.<._.^.:.^.^.^.^.^.^.^.^.^._.",
"[.<.[.. _.}._.|._.}.[.<.[.. _.}._.<.1._.}._.}."};
