/* XPM */
static char * title_5_active_xpm[] = {
"2 30 47 1",
" 	c None",
".	c #4E5051",
"+	c #616366",
"@	c #606265",
"#	c #606266",
"$	c #5F6265",
"%	c #5F6164",
"&	c #5E6164",
"*	c #5F6063",
"=	c #5E6063",
"-	c #5E6062",
";	c #5D5F61",
">	c #5D5F62",
",	c #5D5E61",
"'	c #5C5F61",
")	c #5C5E60",
"!	c #5B5D60",
"~	c #5A5D5F",
"{	c #5A5D5E",
"]	c #5A5C5E",
"^	c #5A5B5E",
"/	c #585B5D",
"(	c #595B5E",
"_	c #585B5C",
":	c #57595B",
"<	c #56585A",
"[	c #57585A",
"}	c #555859",
"|	c #565859",
"1	c #555659",
"2	c #555758",
"3	c #545658",
"4	c #545657",
"5	c #545557",
"6	c #535556",
"7	c #525556",
"8	c #525456",
"9	c #525455",
"0	c #525355",
"a	c #515354",
"b	c #515355",
"c	c #515254",
"d	c #505252",
"e	c #4F5152",
"f	c #4F5153",
"g	c #4F5052",
"h	c #4F5151",
"..",
"++",
"@#",
"$%",
"&%",
"*=",
"=-",
";>",
",'",
")!",
"!~",
"{~",
"]^",
"/(",
"_/",
"::",
"::",
"<[",
"}|",
"12",
"33",
"45",
"67",
"88",
"90",
"ab",
"cc",
"de",
"ef",
"gh"};
