/* XPM */
static char * top_left_inactive_xpm[] = {
"8 30 87 1",
" 	c None",
".	c #4E5051",
"+	c #5C5E61",
"@	c #606366",
"#	c #616366",
"$	c #616265",
"%	c #606265",
"&	c #606266",
"*	c #606264",
"=	c #606165",
"-	c #5F6264",
";	c #606164",
">	c #5F6265",
",	c #5F6164",
"'	c #5F6064",
")	c #5F6163",
"!	c #5F6063",
"~	c #5E6063",
"{	c #5E6064",
"]	c #5E6163",
"^	c #5D6063",
"/	c #5E5F62",
"(	c #5E6062",
"_	c #5E5F63",
":	c #5D5F63",
"<	c #5D5F62",
"[	c #5D5F61",
"}	c #5C5F62",
"|	c #5C5F61",
"1	c #5D5E61",
"2	c #5C5D60",
"3	c #5B5D60",
"4	c #5B5E60",
"5	c #5C5E60",
"6	c #5B5D5F",
"7	c #5B5C5F",
"8	c #5A5C5F",
"9	c #5A5C5E",
"0	c #595C5E",
"a	c #5A5B5E",
"b	c #595B5E",
"c	c #595B5D",
"d	c #585A5C",
"e	c #595A5D",
"f	c #585B5C",
"g	c #585B5D",
"h	c #585A5D",
"i	c #58595B",
"j	c #575A5B",
"k	c #56595B",
"l	c #57585B",
"m	c #57595A",
"n	c #57595B",
"o	c #56585A",
"p	c #56595A",
"q	c #56585B",
"r	c #565859",
"s	c #565759",
"t	c #555859",
"u	c #55585A",
"v	c #555659",
"w	c #555759",
"x	c #545658",
"y	c #555658",
"z	c #545758",
"A	c #535657",
"B	c #535557",
"C	c #545557",
"D	c #545657",
"E	c #515456",
"F	c #535556",
"G	c #515455",
"H	c #525456",
"I	c #525556",
"J	c #505355",
"K	c #525455",
"L	c #515355",
"M	c #525355",
"N	c #4F5253",
"O	c #515354",
"P	c #505254",
"Q	c #505253",
"R	c #515253",
"S	c #4F5252",
"T	c #4F5152",
"U	c #4E5052",
"V	c #4E5152",
"   .....",
"  +@####",
" +$$%%$&",
".*=-;>**",
".,,,',)!",
".,~~{]~{",
".^/(_^:(",
".<[}[<|<",
".+[1+||+",
".2342555",
".3367333",
".6888898",
".909a99b",
".bcccccc",
".defghhd",
".iidjddj",
".klmlnnn",
".oppqoom",
".rsstoou",
".vwwwwww",
".xxxyzxy",
".AxxBCDD",
".EBBBFBB",
".GHIHHHI",
".JKKLMLK",
".NLOOOLL",
".NOPQQQR",
".NSQQNNQ",
".NTTTTTT",
".NNUUU.V"};
