/* XPM */
static char * top_right_inactive_xpm[] = {
"8 30 87 1",
" 	c None",
".	c #4E5051",
"+	c #616366",
"@	c #606366",
"#	c #5C5E61",
"$	c #606266",
"%	c #616265",
"&	c #606265",
"*	c #606264",
"=	c #5F6265",
"-	c #606164",
";	c #5F6264",
">	c #606165",
",	c #5F6063",
"'	c #5F6163",
")	c #5F6164",
"!	c #5F6064",
"~	c #5E6064",
"{	c #5E6063",
"]	c #5E6163",
"^	c #5E6062",
"/	c #5D5F63",
"(	c #5D6063",
"_	c #5E5F63",
":	c #5E5F62",
"<	c #5D5F62",
"[	c #5C5F61",
"}	c #5D5F61",
"|	c #5C5F62",
"1	c #5D5E61",
"2	c #5C5E60",
"3	c #5C5D60",
"4	c #5B5E60",
"5	c #5B5D60",
"6	c #5B5C5F",
"7	c #5B5D5F",
"8	c #5A5C5F",
"9	c #5A5C5E",
"0	c #595B5E",
"a	c #5A5B5E",
"b	c #595C5E",
"c	c #595B5D",
"d	c #585A5C",
"e	c #585A5D",
"f	c #585B5D",
"g	c #585B5C",
"h	c #595A5D",
"i	c #575A5B",
"j	c #58595B",
"k	c #57595B",
"l	c #57585B",
"m	c #57595A",
"n	c #56595B",
"o	c #56585A",
"p	c #56585B",
"q	c #56595A",
"r	c #55585A",
"s	c #555859",
"t	c #565759",
"u	c #565859",
"v	c #555759",
"w	c #555659",
"x	c #555658",
"y	c #545658",
"z	c #545758",
"A	c #545657",
"B	c #545557",
"C	c #535557",
"D	c #535657",
"E	c #535556",
"F	c #515456",
"G	c #525556",
"H	c #525456",
"I	c #515455",
"J	c #525455",
"K	c #515355",
"L	c #525355",
"M	c #505355",
"N	c #515354",
"O	c #4F5253",
"P	c #515253",
"Q	c #505253",
"R	c #505254",
"S	c #4F5252",
"T	c #4F5152",
"U	c #4E5152",
"V	c #4E5052",
".....   ",
"++++@#  ",
"$%&&%%# ",
"**=-;>*.",
",')!))).",
"~{]~{{).",
"^/(_^:(.",
"<[<}|}<.",
"#[[#1}#.",
"2223453.",
"5556755.",
"8988887.",
"099a9b9.",
"cccccc0.",
"deefghd.",
"iddidjj.",
"kkklmln.",
"moopqqo.",
"roosttu.",
"vvvvvvw.",
"xyzxyyy.",
"AABCyyD.",
"CCECCCF.",
"GHHHGHI.",
"JKLKJJM.",
"KKNNNKO.",
"PQQQRNO.",
"QOOQQSO.",
"TTTTTTO.",
"U.VVVOO."};
